<?xml version="1.0" standalone="no"?>
<!DOCTYPE svg PUBLIC "-//W3C//DTD SVG 20010904//EN"
 "http://www.w3.org/TR/2001/REC-SVG-20010904/DTD/svg10.dtd">
<svg version="1.0" xmlns="http://www.w3.org/2000/svg"
 width="4500.000000pt" height="4500.000000pt" viewBox="0 0 4500.000000 4500.000000"
 preserveAspectRatio="xMidYMid meet">
<metadata>
Created by potrace 1.16, written by Peter Selinger 2001-2019
</metadata>
<g transform="translate(0.000000,4500.000000) scale(0.100000,-0.100000)"
fill="#000000" stroke="none">
<path d="M0 22500 l0 -22500 22500 0 22500 0 0 22500 0 22500 -22500 0 -22500
0 0 -22500z m23160 13359 c2091 -125 4119 -1184 5761 -3009 1176 -1305 2122
-2979 2749 -4860 315 -946 549 -1950 695 -2980 20 -140 35 -265 33 -277 -2
-18 -22 -1 -110 100 -59 67 -136 154 -172 192 l-64 71 -46 279 c-641 3872
-2539 7148 -5146 8884 -1135 756 -2269 1165 -3585 1293 -178 18 -973 17 -1160
0 -341 -32 -665 -81 -961 -147 -1980 -441 -3804 -1729 -5234 -3695 -152 -209
-452 -662 -592 -895 -1097 -1822 -1809 -3984 -2072 -6300 -44 -381 -74 -771
-97 -1225 -14 -272 -17 -1232 -5 -1461 l8 -157 201 98 c496 241 1058 419 1587
504 385 62 668 80 1153 73 636 -9 1192 -76 1900 -228 l187 -40 49 40 c26 22
115 109 197 194 812 835 2084 2312 2804 3252 202 265 276 370 345 490 136 237
259 346 389 347 55 1 117 -24 149 -60 24 -26 23 -33 -65 -382 -290 -1152 -980
-4382 -1014 -4750 l-5 -55 257 -125 c625 -304 1168 -643 1702 -1064 l72 -57 0
4857 0 4856 -887 -5 c-895 -5 -1059 -10 -1543 -47 -471 -36 -831 -85 -1178
-161 -589 -129 -966 -293 -1217 -530 l-85 -81 0 486 0 486 5505 0 5505 0 0
-487 0 -486 -62 60 c-237 227 -559 381 -1056 507 -504 127 -961 187 -1817 237
-173 10 -2772 26 -2884 17 l-44 -3 471 -310 472 -310 0 -5147 0 -5147 66 -92
c352 -488 676 -1133 843 -1678 142 -463 202 -846 202 -1302 0 -258 -16 -425
-62 -654 -69 -346 -144 -559 -322 -909 -257 -508 -627 -924 -1039 -1169 -144
-86 -407 -210 -543 -257 -471 -161 -948 -197 -1465 -110 -427 72 -690 168
-982 359 -582 379 -896 806 -1148 1561 -147 440 -205 792 -237 1435 -29 578
-24 706 48 1360 84 769 138 1082 479 2785 120 602 220 1110 222 1129 l3 33
-210 79 c-492 185 -1132 390 -1732 552 l-93 25 -2119 -2444 -2119 -2444 43
-123 c65 -185 155 -422 233 -617 85 -212 240 -572 251 -583 30 -30 607 -49
803 -27 222 26 469 91 702 184 408 164 796 439 1003 712 133 174 193 297 242
492 40 163 55 281 49 409 -10 215 -61 284 -258 348 -73 24 -110 62 -110 112 1
52 30 112 73 150 123 108 457 98 692 -19 441 -221 488 -839 105 -1380 -147
-207 -454 -488 -745 -681 -284 -188 -793 -403 -1185 -500 -155 -39 -329 -70
-475 -87 -169 -19 -496 -12 -722 16 l-53 6 57 -118 c344 -725 886 -1603 1402
-2269 1051 -1358 2324 -2379 3705 -2970 710 -303 1391 -478 2196 -561 199 -21
846 -30 1077 -15 1731 112 3355 836 4810 2143 196 176 513 492 701 698 l141
155 -6 130 c-7 167 4 238 72 445 154 471 231 839 257 1238 20 299 -13 617 -87
831 -26 79 -86 213 -91 208 -2 -2 6 -66 18 -143 18 -118 22 -182 22 -419 0
-392 -38 -704 -139 -1160 -48 -214 -130 -514 -145 -529 -10 -10 -60 29 -103
82 -44 54 -102 185 -126 282 -37 156 -46 254 -45 535 1 334 16 505 121 1380
24 200 24 553 0 700 -25 146 -48 247 -102 433 -25 85 -45 160 -45 167 0 27 21
26 78 -5 140 -74 343 -254 481 -425 209 -259 421 -676 522 -1027 137 -475 128
-915 -26 -1345 -50 -139 -156 -351 -272 -545 -112 -186 -164 -300 -198 -433
-23 -91 -41 -215 -32 -215 9 0 303 370 451 567 526 701 788 1137 1031 1713
125 298 256 678 356 1035 l52 185 -64 68 c-184 193 -474 581 -557 747 -139
279 -186 715 -107 990 31 108 55 155 106 210 60 66 106 79 237 72 118 -7 187
-22 306 -68 188 -72 493 -129 613 -114 80 10 122 27 242 99 126 76 228 126
257 126 11 0 56 -17 100 -39 95 -47 162 -111 201 -196 24 -52 28 -75 31 -176
5 -137 -11 -228 -70 -397 -71 -207 -181 -429 -356 -717 -272 -448 -433 -631
-617 -702 -38 -15 -75 -30 -81 -35 -6 -5 -17 -36 -23 -71 -56 -289 -252 -849
-477 -1356 -170 -381 -247 -526 -446 -834 -59 -92 -108 -169 -108 -172 0 -12
159 43 246 85 136 66 240 145 426 325 312 303 550 465 852 582 396 153 912
174 1431 58 452 -101 814 -278 1060 -517 126 -123 125 -125 -63 -118 -581 21
-736 -7 -1427 -262 -711 -262 -1024 -356 -1336 -402 -132 -20 -342 -20 -430
-2 -76 16 -173 63 -206 98 l-23 24 113 64 c281 161 706 359 998 464 353 127
593 183 964 224 l70 8 -80 20 c-110 26 -451 27 -600 0 -488 -86 -997 -299
-1563 -654 -161 -101 -348 -162 -496 -162 l-52 0 -74 -107 c-593 -849 -1309
-1629 -2070 -2253 -1593 -1306 -3444 -1968 -5313 -1899 -1223 45 -2373 374
-3494 1000 -1612 901 -3037 2395 -4108 4309 -110 197 -366 696 -446 870 -29
63 -54 116 -54 118 -1 1 -58 16 -126 33 -327 79 -679 209 -991 365 l-87 44
-247 -298 c-136 -163 -419 -502 -629 -752 -521 -622 -699 -845 -851 -1071
-200 -298 -239 -483 -142 -674 83 -163 296 -326 488 -373 25 -6 35 -14 35 -28
0 -19 -20 -19 -1128 -22 -1010 -2 -1128 0 -1134 13 -9 24 -1 27 92 36 217 22
382 94 651 285 261 185 448 352 623 559 52 61 540 631 1085 1268 545 638 992
1162 994 1166 1 4 -46 39 -105 78 -233 152 -453 335 -686 568 -447 447 -668
777 -823 1228 -182 533 -210 1091 -80 1601 192 745 745 1477 1504 1986 l94 62
-7 72 c-3 39 -10 206 -15 371 -52 1634 123 3286 515 4855 1010 4045 3426 7231
6432 8486 1091 455 2195 643 3363 573z m8156 -11329 c130 -67 180 -83 269 -83
67 -1 91 4 145 27 90 39 122 43 163 17 233 -144 552 -944 762 -1910 87 -401
96 -696 29 -1013 -54 -259 -179 -543 -353 -804 -127 -191 -228 -316 -432 -537
-242 -263 -282 -310 -371 -442 l-81 -120 6 95 c3 52 29 572 58 1155 l53 1060
27 22 c50 42 56 78 79 441 l22 341 -22 46 c-66 136 -262 139 -330 6 -16 -32
-22 -91 -41 -376 -23 -368 -22 -386 28 -446 l27 -31 -72 -1452 c-61 -1218 -76
-1467 -93 -1552 -40 -198 -50 -292 -56 -499 -5 -170 -9 -214 -22 -232 -19 -27
-37 -29 -50 -5 -5 9 -9 127 -9 262 0 149 -6 280 -14 335 -11 74 -11 273 -3
1090 l10 1000 34 46 33 47 19 283 c25 383 25 431 -3 481 -50 88 -170 116 -259
59 -74 -47 -80 -67 -100 -376 -27 -396 -27 -434 -1 -476 12 -20 30 -44 42 -54
19 -18 20 -29 20 -354 0 -185 -3 -501 -7 -702 l-6 -367 -72 112 c-39 61 -136
202 -216 313 -176 247 -251 366 -345 548 -119 229 -216 485 -278 730 -110 434
-88 911 63 1371 133 408 341 785 777 1411 74 105 170 249 215 319 126 200 179
253 251 254 15 0 62 -18 104 -40z m-3104 -2209 c532 -92 979 -393 1300 -876
102 -153 214 -382 273 -558 25 -76 68 -190 96 -255 28 -64 53 -123 56 -131 4
-8 -40 26 -98 75 -145 124 -270 223 -423 335 -123 90 -131 98 -139 138 -5 27
-21 55 -45 80 -58 59 -582 382 -632 388 -114 16 -224 -96 -206 -211 13 -80 36
-100 328 -283 151 -95 292 -180 313 -189 28 -11 53 -14 88 -10 l48 7 152 -114
c400 -299 797 -666 1091 -1007 191 -222 311 -445 376 -700 25 -100 50 -266 50
-343 l0 -58 -123 183 c-392 586 -774 1000 -1118 1213 -262 162 -552 264 -845
296 -63 7 -114 17 -114 22 0 25 -145 262 -228 372 -163 219 -362 398 -589 531
-238 141 -398 180 -608 151 -119 -17 -154 -14 -221 21 -48 25 -64 58 -64 136
1 231 227 535 506 678 229 118 500 156 776 109z m5849 -50 c131 -30 232 -66
364 -130 348 -170 581 -461 541 -676 -5 -26 -22 -52 -55 -85 -52 -51 -134 -95
-398 -210 -322 -140 -544 -304 -707 -522 -46 -62 -64 -79 -90 -83 -17 -3 -62
-10 -101 -16 -635 -95 -1395 -614 -1816 -1241 -34 -50 -106 -176 -159 -278
-88 -169 -150 -275 -251 -427 -18 -29 -36 -53 -40 -53 -3 0 -2 37 3 83 43 460
223 913 479 1204 132 150 355 382 467 487 252 234 578 491 892 703 162 108
167 111 211 106 34 -4 58 0 90 15 55 26 546 398 572 434 11 15 23 44 26 65 26
146 -114 263 -247 208 -20 -9 -155 -105 -299 -213 -269 -202 -293 -225 -307
-302 -6 -32 -18 -43 -128 -115 -67 -44 -188 -128 -269 -187 -81 -60 -150 -108
-154 -108 -3 0 9 28 26 62 123 244 207 572 225 881 l7 119 61 45 c166 121 379
210 596 249 105 19 349 11 461 -15z m164 -1941 c457 -99 874 -357 1108 -685
64 -90 124 -215 138 -288 11 -53 10 -61 -8 -85 -28 -38 -87 -50 -298 -62 -536
-30 -725 -62 -978 -166 -135 -55 -171 -75 -397 -220 -401 -256 -620 -360 -832
-394 -107 -17 -361 -7 -503 20 -142 27 -346 37 -456 20 -159 -23 -282 -72
-471 -186 -97 -59 -157 -88 -165 -80 -2 2 22 37 54 78 136 171 298 430 417
665 118 233 231 387 445 606 419 428 891 701 1361 787 146 27 439 22 585 -10z
m-5697 -236 c28 -19 81 -21 113 -4 44 24 253 -10 439 -71 109 -36 262 -106
368 -168 355 -207 781 -682 1196 -1333 120 -189 129 -205 100 -193 -67 28
-181 47 -314 52 -233 9 -436 -35 -696 -151 -106 -47 -236 -85 -364 -108 -124
-21 -475 -16 -650 11 -294 45 -592 118 -990 245 -398 127 -611 141 -1046 66
-204 -35 -254 -37 -311 -11 -68 31 -76 63 -42 164 74 220 419 628 812 961 317
268 570 406 902 491 112 28 183 41 340 59 76 8 122 5 143 -10z"/>
<path d="M21234 25242 c-104 -125 -776 -904 -1492 -1731 -717 -826 -1301
-1505 -1298 -1508 8 -8 152 -49 476 -134 639 -168 1053 -290 1320 -388 74 -27
135 -49 136 -48 5 6 1055 4030 1052 4032 -2 2 -89 -98 -194 -223z"/>
<path d="M15635 22153 c-571 -28 -1016 -107 -1486 -263 -286 -95 -476 -173
-747 -306 l-234 -115 6 -57 c3 -31 8 -97 11 -147 72 -1116 278 -2324 580
-3410 84 -301 198 -666 207 -663 6 2 3771 4345 4032 4651 27 32 47 59 45 62
-9 8 -350 75 -584 114 -665 110 -1327 159 -1830 134z"/>
<path d="M12732 21180 c-181 -135 -274 -215 -424 -367 -184 -187 -279 -303
-415 -508 -179 -270 -302 -526 -381 -795 -154 -521 -141 -1082 38 -1620 225
-675 681 -1219 1392 -1661 107 -67 133 -79 143 -67 7 7 117 135 245 283 129
149 273 315 321 371 l88 101 -75 234 c-394 1229 -662 2585 -759 3839 -19 245
-24 290 -33 290 -4 0 -67 -45 -140 -100z"/>
<path d="M20960 20951 c0 -5 -45 -256 -100 -558 -276 -1523 -329 -1855 -414
-2593 -147 -1276 -157 -1781 -50 -2540 236 -1674 909 -2492 2106 -2560 771
-43 1395 229 1876 818 400 491 624 1019 714 1682 30 225 33 738 5 955 -91 702
-328 1319 -776 2025 l-66 104 -3 -862 -2 -862 -59 0 c-125 0 -339 53 -463 116
-99 50 -193 118 -291 213 -187 181 -280 341 -340 581 -20 83 -21 108 -25 1120
l-3 1035 -122 101 c-429 357 -894 668 -1426 956 -167 91 -541 278 -555 278 -3
0 -6 -4 -6 -9z"/>
<path d="M13532 16372 l-283 -326 58 -30 c108 -54 333 -146 506 -205 177 -60
384 -118 392 -109 3 2 -14 47 -36 99 -69 157 -223 544 -289 724 -34 94 -63
171 -63 172 -1 1 -130 -145 -285 -325z"/>
</g>
</svg>
